HIERARCHY
ROOT Hips
{
    OFFSET 0.000000 0.000000 0.000000
    CHANNELS 6 Xposition Yposition Zposition Zrotation Xrotation Yrotation
    JOINT Spine
    {
        OFFSET -0.000000 7.284621 0.000000
        CHANNELS 3 Zrotation Xrotation Yrotation
        JOINT Spine1
        {
            OFFSET -0.000000 19.968920 0.000000
            CHANNELS 3 Zrotation Xrotation Yrotation
            JOINT Neck
            {
                OFFSET -0.000000 21.745657 0.000000
                CHANNELS 3 Zrotation Xrotation Yrotation
                JOINT Head
                {
                    OFFSET -0.000000 13.769711 1.776737
                    CHANNELS 3 Zrotation Xrotation Yrotation
                    End Site
                    {
                        OFFSET -0.000000 17.767368 0.000000
                    }
                }
            }
            JOINT LeftShoulder
            {
                OFFSET 3.594505 17.711157 -0.013107
                CHANNELS 3 Zrotation Xrotation Yrotation
                JOINT LeftArm
                {
                    OFFSET 12.210003 0.000000 0.000000
                    CHANNELS 3 Zrotation Xrotation Yrotation
                    JOINT LeftForeArm
                    {
                        OFFSET 24.535166 0.000000 0.000000
                        CHANNELS 3 Zrotation Xrotation Yrotation
                        JOINT LeftHand
                        {
                            OFFSET 20.235195 0.000000 0.000000
                            CHANNELS 3 Zrotation Xrotation Yrotation
                            JOINT LeftHandThumb1
                            {
                                OFFSET 1.906737 -2.166747 3.033446
                                CHANNELS 3 Zrotation Xrotation Yrotation
                                JOINT LeftHandThumb2
                                {
                                    OFFSET 2.043247 0.000000 1.332553
                                    CHANNELS 3 Zrotation Xrotation Yrotation
                                    JOINT LeftHandThumb3
                                    {
                                        OFFSET 2.665105 0.000000 0.000000
                                        CHANNELS 3 Zrotation Xrotation Yrotation
                                        End Site
                                        {
                                            OFFSET 2.367595 0.000000 0.000000
                                        }
                                    }
                                }
                            }
                            JOINT LeftHandIndex1
                            {
                                OFFSET 7.800290 0.000000 3.033446
                                CHANNELS 3 Zrotation Xrotation Yrotation
                                JOINT LeftHandIndex2
                                {
                                    OFFSET 4.441842 0.000000 0.000000
                                    CHANNELS 3 Zrotation Xrotation Yrotation
                                    JOINT LeftHandIndex3
                                    {
                                        OFFSET 2.220921 0.000000 0.000000
                                        CHANNELS 3 Zrotation Xrotation Yrotation
                                        End Site
                                        {
                                            OFFSET 1.972996 0.000000 0.000000
                                        }
                                    }
                                }
                            }
                            JOINT LeftHandMiddle1
                            {
                                OFFSET 7.800290 0.000000 1.005371
                                CHANNELS 3 Zrotation Xrotation Yrotation
                                JOINT LeftHandMiddle2
                                {
                                    OFFSET 4.886026 0.000000 0.000000
                                    CHANNELS 3 Zrotation Xrotation Yrotation
                                    JOINT LeftHandMiddle3
                                    {
                                        OFFSET 2.665105 0.000000 0.000000
                                        CHANNELS 3 Zrotation Xrotation Yrotation
                                        End Site
                                        {
                                            OFFSET 2.367595 0.000000 0.000000
                                        }
                                    }
                                }
                            }
                            JOINT LeftHandRing1
                            {
                                OFFSET 7.366940 0.000000 -1.005371
                                CHANNELS 3 Zrotation Xrotation Yrotation
                                JOINT LeftHandRing2
                                {
                                    OFFSET 4.441842 0.000000 0.000000
                                    CHANNELS 3 Zrotation Xrotation Yrotation
                                    JOINT LeftHandRing3
                                    {
                                        OFFSET 2.220921 0.000000 0.000000
                                        CHANNELS 3 Zrotation Xrotation Yrotation
                                        End Site
                                        {
                                            OFFSET 1.972996 0.000000 0.000000
                                        }
                                    }
                                }
                            }
                            JOINT LeftHandPinky1
                            {
                                OFFSET 6.933591 0.000000 -3.033446
                                CHANNELS 3 Zrotation Xrotation Yrotation
                                JOINT LeftHandPinky2
                                {
                                    OFFSET 3.553473 0.000000 0.000000
                                    CHANNELS 3 Zrotation Xrotation Yrotation
                                    JOINT LeftHandPinky3
                                    {
                                        OFFSET 1.776737 0.000000 0.000000
                                        CHANNELS 3 Zrotation Xrotation Yrotation
                                        End Site
                                        {
                                            OFFSET 1.578397 0.000000 0.000000
                                        }
                                    }
                                }
                            }
                        }
                    }
                }
            }
            JOINT RightShoulder
            {
                OFFSET -3.500468 17.711157 -0.013107
                CHANNELS 3 Zrotation Xrotation Yrotation
                JOINT RightArm
                {
                    OFFSET -12.210003 0.000000 0.000000
                    CHANNELS 3 Zrotation Xrotation Yrotation
                    JOINT RightForeArm
                    {
                        OFFSET -24.535166 0.000000 0.000000
                        CHANNELS 3 Zrotation Xrotation Yrotation
                        JOINT RightHand
                        {
                            OFFSET -20.235195 0.000000 0.000000
                            CHANNELS 3 Zrotation Xrotation Yrotation
                            JOINT RightHandThumb1
                            {
                                OFFSET -1.906737 -2.166747 3.033446
                                CHANNELS 3 Zrotation Xrotation Yrotation
                                JOINT RightHandThumb2
                                {
                                    OFFSET -2.043247 0.000000 1.332553
                                    CHANNELS 3 Zrotation Xrotation Yrotation
                                    JOINT RightHandThumb3
                                    {
                                        OFFSET -2.665105 0.000000 0.000000
                                        CHANNELS 3 Zrotation Xrotation Yrotation
                                        End Site
                                        {
                                            OFFSET -2.367595 0.000000 0.000000
                                        }
                                    }
                                }
                            }
                            JOINT RightHandIndex1
                            {
                                OFFSET -7.800290 0.000000 3.033446
                                CHANNELS 3 Zrotation Xrotation Yrotation
                                JOINT RightHandIndex2
                                {
                                    OFFSET -4.441842 0.000000 0.000000
                                    CHANNELS 3 Zrotation Xrotation Yrotation
                                    JOINT RightHandIndex3
                                    {
                                        OFFSET -2.220921 0.000000 0.000000
                                        CHANNELS 3 Zrotation Xrotation Yrotation
                                        End Site
                                        {
                                            OFFSET -1.972996 0.000000 0.000000
                                        }
                                    }
                                }
                            }
                            JOINT RightHandMiddle1
                            {
                                OFFSET -7.800290 0.000000 1.005371
                                CHANNELS 3 Zrotation Xrotation Yrotation
                                JOINT RightHandMiddle2
                                {
                                    OFFSET -4.886026 0.000000 0.000000
                                    CHANNELS 3 Zrotation Xrotation Yrotation
                                    JOINT RightHandMiddle3
                                    {
                                        OFFSET -2.665105 0.000000 0.000000
                                        CHANNELS 3 Zrotation Xrotation Yrotation
                                        End Site
                                        {
                                            OFFSET -2.367595 0.000000 0.000000
                                        }
                                    }
                                }
                            }
                            JOINT RightHandRing1
                            {
                                OFFSET -7.366940 0.000000 -1.005371
                                CHANNELS 3 Zrotation Xrotation Yrotation
                                JOINT RightHandRing2
                                {
                                    OFFSET -4.441842 0.000000 0.000000
                                    CHANNELS 3 Zrotation Xrotation Yrotation
                                    JOINT RightHandRing3
                                    {
                                        OFFSET -2.220921 0.000000 0.000000
                                        CHANNELS 3 Zrotation Xrotation Yrotation
                                        End Site
                                        {
                                            OFFSET -1.972996 0.000000 0.000000
                                        }
                                    }
                                }
                            }
                            JOINT RightHandPinky1
                            {
                                OFFSET -6.933591 0.000000 -3.033446
                                CHANNELS 3 Zrotation Xrotation Yrotation
                                JOINT RightHandPinky2
                                {
                                    OFFSET -3.553473 0.000000 0.000000
                                    CHANNELS 3 Zrotation Xrotation Yrotation
                                    JOINT RightHandPinky3
                                    {
                                        OFFSET -1.776737 0.000000 0.000000
                                        CHANNELS 3 Zrotation Xrotation Yrotation
                                        End Site
                                        {
                                            OFFSET -1.578397 0.000000 0.000000
                                        }
                                    }
                                }
                            }
                        }
                    }
                }
            }
        }
    }
    JOINT LeftUpLeg
    {
        OFFSET 8.883684 0.000000 0.000000
        CHANNELS 3 Zrotation Xrotation Yrotation
        JOINT LeftLeg
        {
            OFFSET -0.000000 -38.184189 0.000000
            CHANNELS 3 Zrotation Xrotation Yrotation
            JOINT LeftFoot
            {
                OFFSET -0.000000 -35.840691 0.000000
                CHANNELS 3 Zrotation Xrotation Yrotation
                JOINT LeftToeBase
                {
                    OFFSET -0.000000 -5.774395 13.325527
                    CHANNELS 3 Zrotation Xrotation Yrotation
                    End Site
                    {
                        OFFSET -0.000000 0.000000 3.553473
                    }
                }
            }
        }
    }
    JOINT RightUpLeg
    {
        OFFSET -8.883684 0.000000 0.000000
        CHANNELS 3 Zrotation Xrotation Yrotation
        JOINT RightLeg
        {
            OFFSET -0.000000 -38.184189 0.000000
            CHANNELS 3 Zrotation Xrotation Yrotation
            JOINT RightFoot
            {
                OFFSET -0.000000 -35.840691 0.000000
                CHANNELS 3 Zrotation Xrotation Yrotation
                JOINT RightToeBase
                {
                    OFFSET -0.000000 -5.774395 13.325527
                    CHANNELS 3 Zrotation Xrotation Yrotation
                    End Site
                    {
                        OFFSET -0.000000 0.000000 3.553473
                    }
                }
            }
        }
    }
}
MOTION
Frames:    4
Frame Time:    0.008333
0.232243    81.910461    115.846718    0.858062    -0.982856    -6.769309    1.037546    -3.753708    2.136166    -5.780098    7.844321    1.097575    7.050789    1.778559    -6.720342    0.164706    -0.020392    -5.912547    10.754874    5.229091    -6.088442    -23.532429    -6.600129    5.705052    31.497372    -3.200586    -12.857913    18.729811    -39.051281    10.534126    4.227857    1.050640    6.426649    -0.000000    0.000000    4.703089    -0.000000    0.000000    9.406178    -4.773396    0.000000    0.000000    -9.546792    0.000000    0.000000    -4.773396    0.000000    0.000000    -7.230610    -0.223919    1.305769    -14.468116    0.000000    0.000000    -7.234058    0.000000    0.000000    -9.682156    -0.503553    2.600775    -19.389439    0.000000    0.000000    -9.694720    0.000000    0.000000    -12.200878    -0.849243    3.921335    -24.459900    0.000000    0.000000    -12.229950    0.000000    0.000000    -7.256309    2.358932    1.615609    34.550217    8.946427    1.177221    -29.387537    -10.004617    15.689034    -5.129256    -59.290264    -18.734388    0.580590    0.275979    -0.031083    0.000000    0.000000    -0.019189    0.000000    0.000000    -0.038377    -7.921199    -0.236774    1.701207    0.000000    0.000000    0.000000    0.000000    0.000000    0.000000    -4.161571    -0.121267    1.145438    2.292921    0.000000    -0.000000    1.146460    0.000000    -0.000000    -0.401009    -0.042455    0.583294    4.585842    0.000000    -0.000000    2.292920    0.000000    -0.000000    3.474122    0.000000    -0.000000    6.948244    0.000000    -0.000000    3.474122    0.000000    -0.000000    -2.464841    -1.211373    0.362192    -0.366028    11.527699    3.750303    -1.095481    -12.171350    4.794631    0.138463    0.778206    -0.086543    -1.317139    -4.894742    3.612761    2.375486    16.417356    -3.689566    -2.062650    -9.668787    2.331669    0.076888    0.286074    -0.141454    
0.244270    81.902679    115.848373    0.884211    -1.006246    -6.815265    1.029102    -3.759378    2.166234    -5.790040    7.857985    1.109014    7.043792    1.782947    -6.713726    0.141084    -0.032396    -5.903458    10.762926    5.262816    -6.055326    -23.470896    -6.692730    5.887327    31.710869    -3.587086    -12.938417    17.970768    -39.561325    9.873916    4.358156    0.935706    6.401727    -0.000000    0.000000    4.668648    -0.000000    0.000000    9.337296    -7.831856    0.000000    0.000000    -15.663712    0.000000    0.000000    -7.831856    0.000000    0.000000    -10.187940    -0.290467    1.300910    -20.384216    0.000000    0.000000    -10.192108    0.000000    0.000000    -12.536932    -0.634091    2.588839    -25.104717    0.000000    0.000000    -12.552361    0.000000    0.000000    -14.948626    -1.042933    3.900037    -29.968267    0.000000    0.000000    -14.984134    0.000000    0.000000    -7.249590    2.359457    1.615957    34.549496    8.973087    1.168574    -29.382078    -10.006696    15.686027    -5.154194    -59.281013    -18.745052    0.588650    0.274666    -0.022616    0.000000    0.000000    -0.013710    0.000000    0.000000    -0.027420    -7.903970    -0.233850    1.683923    0.000000    0.000000    0.000000    0.000000    0.000000    0.000000    -4.144442    -0.119689    1.133789    2.304052    0.000000    -0.000000    1.152026    0.000000    -0.000000    -0.384003    -0.041849    0.577356    4.608105    0.000000    -0.000000    2.304052    0.000000    -0.000000    3.490988    0.000000    -0.000000    6.981976    0.000000    -0.000000    3.490988    0.000000    -0.000000    -2.503277    -1.205732    0.372944    -0.370764    11.559486    3.757160    -1.078707    -12.170718    4.827237    0.139055    0.776666    -0.088579    -1.342963    -4.877820    3.610350    2.350006    16.424206    -3.596824    -2.068319    -9.714107    2.285088    0.076389    0.303532    -0.141251    
0.256119    81.895287    115.849594    0.908809    -1.032518    -6.860116    1.018950    -3.761054    2.194598    -5.795399    7.873074    1.119751    7.036388    1.783644    -6.708340    0.118231    -0.045552    -5.896024    10.770734    5.294687    -6.019281    -23.411654    -6.782736    6.007125    31.895969    -3.991294    -13.025664    17.016436    -40.033726    9.198505    4.477565    0.801396    6.337544    -0.000000    0.000000    4.601087    -0.000000    0.000000    9.202173    -10.715790    0.000000    0.000000    -21.431581    0.000000    0.000000    -10.715790    0.000000    0.000000    -12.909744    -0.355293    1.312677    -25.829327    0.000000    0.000000    -12.914660    0.000000    0.000000    -15.095130    -0.760483    2.610877    -30.227066    0.000000    0.000000    -15.113526    0.000000    0.000000    -17.336838    -1.229300    3.931423    -34.758064    0.000000    0.000000    -17.379032    0.000000    0.000000    -7.241681    2.354262    1.615689    34.546387    9.007602    1.157007    -29.379223    -10.017366    15.686420    -5.163543    -59.272839    -18.742847    0.592476    0.271668    -0.014478    0.000000    0.000000    -0.008451    0.000000    0.000000    -0.016901    -7.886797    -0.230210    1.661378    0.000000    0.000000    0.000000    0.000000    0.000000    0.000000    -4.129347    -0.117765    1.118596    2.311185    0.000000    -0.000000    1.155593    0.000000    -0.000000    -0.371011    -0.041136    0.569612    4.622371    0.000000    -0.000000    2.311185    0.000000    -0.000000    3.501796    0.000000    -0.000000    7.003591    0.000000    -0.000000    3.501796    0.000000    -0.000000    -2.539401    -1.194987    0.387336    -0.376500    11.587565    3.767530    -1.066059    -12.172186    4.852887    0.139158    0.774674    -0.089527    -1.368071    -4.866598    3.607439    2.326690    16.445545    -3.505042    -2.074043    -9.752674    2.238382    0.075783    0.316856    -0.140713    
0.267831    81.888535    115.850533    0.930962    -1.061735    -6.903727    1.008482    -3.758305    2.221598    -5.796989    7.887677    1.129716    7.030213    1.784676    -6.704666    0.094736    -0.061788    -5.890056    10.779431    5.323977    -5.978384    -23.307678    -6.892163    6.151943    32.053909    -4.412385    -12.998906    15.639791    -40.571266    8.276345    4.585768    0.639549    6.222431    -0.000000    0.000000    4.488559    -0.000000    0.000000    8.977118    -13.499593    0.000000    0.000000    -26.999186    0.000000    0.000000    -13.499593    0.000000    0.000000    -15.437500    -0.415345    1.324245    -30.886160    0.000000    0.000000    -15.443076    0.000000    0.000000    -17.365452    -0.875122    2.633801    -34.773125    0.000000    0.000000    -17.386562    0.000000    0.000000    -19.340647    -1.394503    3.966299    -38.777878    0.000000    0.000000    -19.388933    0.000000    0.000000    -7.233795    2.344875    1.615006    34.543560    9.046808    1.143967    -29.379631    -10.029871    15.689470    -5.163913    -59.266499    -18.732174    0.593355    0.266703    -0.005189    0.000000    0.000000    -0.002463    0.000000    0.000000    -0.004926    -7.876101    -0.226255    1.635092    0.000000    0.000000    0.000000    0.000000    0.000000    0.000000    -4.121989    -0.115724    1.100886    2.311517    0.000000    -0.000000    1.155759    0.000000    -0.000000    -0.367020    -0.040412    0.560589    4.623035    0.000000    -0.000000    2.311517    0.000000    -0.000000    3.502299    0.000000    -0.000000    7.004598    0.000000    -0.000000    3.502299    0.000000    -0.000000    -2.572690    -1.178498    0.405372    -0.382663    11.610741    3.782327    -1.057242    -12.174239    4.869773    0.138844    0.772946    -0.089319    -1.391790    -4.858849    3.605562    2.305847    16.477804    -3.418584    -2.078081    -9.785658    2.194537    0.075048    0.326355    -0.139817    
